<svg width="25" height="24" viewBox="0 0 25 24" fill="none" xmlns="http://www.w3.org/2000/svg">
<path fill-rule="evenodd" clip-rule="evenodd" d="M17.8234 15.9048C19.0704 14.2971 19.6581 12.2748 19.4669 10.2492C19.2757 8.22367 18.3201 6.34701 16.7944 5.00104C15.2686 3.65507 13.2874 2.9409 11.2538 3.00383C9.22024 3.06676 7.28699 3.90205 5.8474 5.33978C4.40656 6.77851 3.56853 8.7125 3.5041 10.7476C3.43967 12.7828 4.15368 14.7659 5.50063 16.2929C6.84758 17.8199 8.7261 18.7758 10.7534 18.9659C12.7807 19.1559 14.8041 18.5658 16.4114 17.3158L16.4544 17.3608L20.6964 21.6038C20.7893 21.6967 20.8996 21.7704 21.021 21.8207C21.1424 21.871 21.2725 21.8968 21.4039 21.8968C21.5353 21.8968 21.6654 21.871 21.7868 21.8207C21.9082 21.7704 22.0185 21.6967 22.1114 21.6038C22.2043 21.5109 22.278 21.4006 22.3283 21.2792C22.3786 21.1578 22.4045 21.0277 22.4045 20.8963C22.4045 20.7649 22.3786 20.6348 22.3283 20.5134C22.278 20.392 22.2043 20.2817 22.1114 20.1888L17.8684 15.9468C17.8538 15.9324 17.8388 15.9184 17.8234 15.9048ZM15.7474 6.75478C16.312 7.31026 16.761 7.97203 17.0686 8.70192C17.3762 9.43181 17.5362 10.2154 17.5394 11.0074C17.5426 11.7994 17.389 12.5843 17.0874 13.3166C16.7858 14.049 16.3422 14.7144 15.7821 15.2745C15.222 15.8345 14.5566 16.2782 13.8243 16.5798C13.0919 16.8814 12.3071 17.035 11.515 17.0318C10.723 17.0286 9.93943 16.8686 9.20954 16.561C8.47965 16.2534 7.81788 15.8044 7.2624 15.2398C6.15232 14.1115 5.53306 12.5902 5.5395 11.0074C5.54595 9.42458 6.17758 7.90843 7.29681 6.78919C8.41605 5.66996 9.9322 5.03833 11.515 5.03188C13.0978 5.02544 14.6191 5.6447 15.7474 6.75478Z" fill="#7E7F7F"/>
</svg>
